<svg width="540" height="369" viewBox="0 0 540 369" fill="none" xmlns="http://www.w3.org/2000/svg">
<path d="M154.2 173H139.4L131.4 165V153.8H128.2V173H105.4V118.6H128.2V137.8H131.4V126.6L139.4 118.6H154.2V142.6H143.8V145.8H154.2V173ZM158.994 173V125H207.794V173H158.994ZM184.994 141H181.794V157H184.994V141ZM269.708 177.8L261.708 185.8H251.307V173H210.988V160.2H214.188V133L222.188 125H262.988V152.2H269.708V177.8ZM240.188 160.2V141H236.988V160.2H240.188ZM148.2 218.8H125.4V190L133.4 182H139V198H148.2V218.8ZM175 218.8H152.2V190L160.2 182H165.8V198H175V218.8ZM231.775 254V230H228.575V246L220.575 254H213.775L205.775 246V230H202.575V254H179.775V199.6H207.615L215.615 207.6V215.6H218.815V207.6L226.815 199.6H254.575V254H231.775ZM308.184 254H290.184V234.8H286.984V246L278.984 254H259.384V206H277.384V225.2H280.584V214L288.584 206H308.184V254ZM361.778 254H346.978L338.978 246V238H335.778V254H312.978V206H335.778V222H338.978V214L346.978 206H361.778V226.8H351.378V230H361.778V254ZM366.572 254V206H415.372V254H366.572ZM392.572 222H389.372V238H392.572V222ZM469.766 210.8L461.766 218.8H456.166V202.8H446.966V182H469.766V210.8ZM442.966 210.8L434.966 218.8H429.366V202.8H420.166V182H442.966V210.8Z" fill="white"/>
</svg>
