<svg width="365" height="136" viewBox="0 0 365 136" fill="none" xmlns="http://www.w3.org/2000/svg">
<path d="M49.2 55H34.4L26.4 47V35.8H23.2V55H0.4V0.599999H23.2V19.8H26.4V8.6L34.4 0.599999H49.2V24.6H38.8V27.8H49.2V55ZM53.9938 55V7H102.794V55H53.9938ZM79.9938 23H76.7938V39H79.9938V23ZM164.708 59.8L156.708 67.8H146.307V55H105.988V42.2H109.188V15L117.188 7H157.988V34.2H164.708V59.8ZM135.188 42.2V23H131.988V42.2H135.188ZM43.2 100.8H20.4V72L28.4 64H34V80H43.2V100.8ZM70 100.8H47.2V72L55.2 64H60.8V80H70V100.8ZM126.775 136V112H123.575V128L115.575 136H108.775L100.775 128V112H97.575V136H74.775V81.6H102.615L110.615 89.6V97.6H113.815V89.6L121.815 81.6H149.575V136H126.775ZM203.184 136H185.184V116.8H181.984V128L173.984 136H154.384V88H172.384V107.2H175.584V96L183.584 88H203.184V136ZM256.778 136H241.978L233.978 128V120H230.778V136H207.978V88H230.778V104H233.978V96L241.978 88H256.778V108.8H246.378V112H256.778V136ZM261.572 136V88H310.372V136H261.572ZM287.572 104H284.372V120H287.572V104ZM364.766 92.8L356.766 100.8H351.166V84.8H341.966V64H364.766V92.8ZM337.966 92.8L329.966 100.8H324.366V84.8H315.166V64H337.966V92.8Z" fill="white"/>
</svg>
