<?xml version="1.0" encoding="utf-8"?>
<!-- Generator: Adobe Illustrator 15.1.0, SVG Export Plug-In . SVG Version: 6.00 Build 0)  -->
<!DOCTYPE svg PUBLIC "-//W3C//DTD SVG 1.1//EN" "http://www.w3.org/Graphics/SVG/1.1/DTD/svg11.dtd">
<svg version="1.1" id="Layer_1" xmlns="http://www.w3.org/2000/svg" xmlns:xlink="http://www.w3.org/1999/xlink" x="0px" y="0px"
	 width="1280px" height="1000px" viewBox="370.39 100 1280 1000" enable-background="new 370.39 100 1280 1000"
	 xml:space="preserve">
<g>
	<g>
		<path fill="#FFFFFF" d="M1346.159,610.742c-0.418,0.356-0.324,1.226-1.293,1.033
			C1344.827,610.963,1345.528,610.889,1346.159,610.742z"/>
		<path fill="#FFFFFF" d="M1353.891,621.57c-0.276,0.584-0.784,0.937-1.55,1.032C1352.717,622.114,1352.92,621.459,1353.891,621.57z
			"/>
		<path fill="#FFFFFF" d="M1348.733,625.951c0.041,0.299-0.058,0.46-0.256,0.515c0.003,0.251,0.314,0.201,0.513,0.259
			c-0.792,1.09-1.774,0.557-2.836,1.031c0.228-0.935,2.59-2.822,3.865-3.608c0.965,0.024,0.735,0.291,1.548,0
			C1350.536,624.99,1350.904,625.573,1348.733,625.951z"/>
		<path fill="#FFFFFF" d="M1317.801,630.333c-1.76,1.245-3.37,2.642-5.671,3.351
			C1313.839,632.384,1315.681,631.218,1317.801,630.333z"/>
		<path fill="#FFFFFF" d="M1287.642,650.441c0.85,1.032-0.725,1.84-1.547,2.062C1286.512,651.715,1287.391,651.389,1287.642,650.441
			z"/>
		<path fill="#FFFFFF" d="M1256.711,671.063c0.086,1.038-1.76,2.358-3.096,2.833
			C1254.222,672.525,1255.776,672.106,1256.711,671.063z"/>
		<path fill="#FFFFFF" d="M1344.354,613.836c0.789-0.416-0.856-1.242,0-1.806c0.796,0.234,1.418,0.645,2.062,1.032
			c0.545-0.083-0.371-0.798-0.519-1.032c0.392-0.382,1.132-0.416,1.808-0.514c-0.046,0.3-0.472,0.215-0.774,0.259
			c-0.025,0.699,0.429,0.516,0,1.028c1.334,0.305,1.734-0.481,2.838-0.515c0.795,0.83,1.812,1.452,2.317,2.577
			c-0.791-0.646-2.021,0.779-2.576-0.257c0.024,0.642,0.481,0.798,0,1.289c1.312-0.2,1.1-0.132,1.802,0.515
			c-0.221,1.583-2.493,1.118-2.834,2.578c0.722,1.324,2.768-2.203,3.863-0.515c0.269-0.253,0.525-0.51,0.775-0.776
			c0.052,0.364,0.624,0.872,1.291,1.289c-1.672,1.277-4.947,2.244-5.672,3.609c0.037,0.156,2.943-1.042,3.351,0.514
			c-1.481-0.563-2.399,1.782-3.608,0.776c-0.961,0.123,0.344-1.193-1.288-0.776c-0.726,0.58,1.282,0.595,1.029,1.548
			c-2.355-0.363-3.7,2.905-5.668,2.836c-0.156,0.926,1.54,0.007,1.286,1.03c0.789,0.014,0.621-0.926,1.546-0.773
			c-0.086,1.038-1.477,0.928-0.774,2.063c-8.223,4.492-16.662,8.766-24.488,13.662c-0.63-0.32,0.776-0.75,0.776-1.29
			c-3.787,1.713-6.471,4.527-10.053,6.448c0.026-0.667,1.009-0.369,1.031-1.035c-1.082-0.047-0.797,1.265-2.063,1.035
			c5.125-5.964,14.524-7.646,19.593-13.665c-2.542,1.359-4.596,2.254-7.221,3.867c0.489-0.887,1.692-1.062,2.065-2.062
			c-4.001,2.527-7.635,5.426-11.602,7.987c-0.205-0.134-0.418-0.267-0.772-0.255c-3.017,2.226-7,3.481-8.761,6.96
			c-0.771,0.348-1.674,0.564-2.066,1.288c2.238-0.943,5.645-2.949,8.251-4.383c-0.637,1.6-2.789,1.674-3.607,3.095
			c-0.489-0.196-0.181-0.771-0.774-0.259c-3.024,2.132-9.29,6.34-12.892,8.767c2.764-3.425,7.958-6.654,11.604-10.054
			c-1.779,0.372-3.794,2.736-5.928,3.605c0.071-0.526,0.695-0.503,0.772-1.029c-4.208,2.479-8.206,5.391-11.861,9.021
			c0.21-0.135,0.419-0.269,0.776-0.257c-4.744,6.041-10.652,8.683-17.531,12.889c0.531-0.844,1.334-1.415,2.063-2.06
			c-1.235,0.052-1.426,1.641-2.577,1.03c0.634,0.306-0.529,0.972,0.255,1.288c-0.911,1.184-3.719,3.108-4.382,2.835
			c-5.532,5.304-13.336,9.384-18.814,15.469c-0.616-0.717,1.044-1.35,1.286-2.063c-5.869,4.267-11.853,10.654-18.041,15.465
			c1.76-3.564,7.022-5.86,9.797-9.278c-1.683,0.386-3.27,2.412-5.417,3.866c-2.181,1.478-4.605,5.322-5.153,4.126
			c-0.868,1.189-2.193,1.928-3.092,3.091c-0.481-0.578,1.151-1.238,1.289-2.061c-1.799,1.298-2.794,3.395-4.641,4.64
			c-0.607-0.542,0.904-1.142,1.03-1.803c-2.167,1.265-3.399,3.475-5.153,5.151c0.3,0.044,0.457-0.054,0.513-0.255
			c-2.968,4.073-8.396,7.929-12.372,11.856c-0.451-0.142,0.523-1,0.515-1.546c-0.93,1.304-2.737,1.729-3.093,3.607
			c-1.004-0.481-2.039,2.085-3.094,3.094c-2.167,2.072-5.253,3.524-6.448,6.187c-0.293,4.686-1.312,8.649-2.571,12.375
			c-0.609-0.635-0.483,0.384-1.291,0.256c-1.726,5.752-5.063,9.889-7.47,14.95c-4.075,1.601-4.771,6.581-8.257,8.765
			c-0.567,0.142-0.363-0.492-0.771-0.516c-3.474,5.698-13.098,5.78-20.365,4.896c0.213-1.408-1.462-0.941-2.576-1.03
			c-1.096-0.937-1.619-1.422-2.836-1.802c0.229-1.059,1.991-0.587,2.319-1.548c-0.217-0.921-0.635-0.031-1.546-0.259
			c0.386-0.815,0.601-1.81,1.031-2.579c0.122-0.549-0.369-0.492-0.774-0.513c0.261-0.343,0.423-0.78,0.774-1.032
			c0.046-0.731-1.687,0.312-1.288-0.773c-7.559,6.723-24.735,11.161-34.801,3.607c-4.136,6.961-11.737,12.872-22.166,11.859
			c-4.271-2.241-2.957-9.603-1.551-13.921c4.721-4.132,8.392-9.312,12.373-14.179c-4.943-11.454-9.378-25.395-7.986-42.017
			c1.328-15.896,8.987-33.237,16.754-43.046c3.012-3.803,8.884-8.713,12.889-10.052c4.916-1.65,11.972-0.356,15.723,1.803
			c0.503,0.292,0.583,0.956,1.289,1.549c1.789,1.503,4.591,2.42,5.927,4.382c-0.174-0.262,0.716,1.67,0.778,1.803
			c5.729,13.335,2.147,30.251-3.096,43.308c-5.214,12.996-10.962,27.364-18.046,37.893c0.209,1.256,1.115,1.807,1.808,2.579
			c11.295-0.747,16.243-8.297,21.139-15.985c5.494-8.629,9.952-19.734,13.662-31.447c3.793-11.999,5.389-24.987,10.312-34.799
			c-0.06-0.829,0.452-1.088,0.257-2.062c2.395-3.975,5.399-6.494,9.023-8.766c0.282,1.194,1.007,0.349,2.314,0.519
			c-0.109-0.578-1.27-0.104-1.805-0.263c0.6-1.143,2.639-0.103,3.354,0.263c0.362-0.093,0.021-0.454-0.258-0.519
			c2.541-0.717,4.637,1.001,6.442,1.29c-0.028,1.749,1.357,2.08,1.803,3.353c-0.765,1.138-0.508,2.052-0.772,3.35
			c0.367,0.024,0.736,0.044,0.772-0.257c-0.245,1.915-0.712,4.618,0.515,6.96c-0.14,9.871-0.052,25.267,0.262,35.572
			c2.863-1.777,5.455-3.826,7.731-6.186c3.895-0.658,5.647-3.461,8.766-4.9c0.823,1.389-1.82,2.307-1.291,3.865
			c1.964-0.612,3.729-3.657,6.448-4.381c-0.887,0.915-2.257,1.354-2.325,3.097c10.398-7.047,19.94-16.321,30.42-22.429
			c0.269-0.766,1.408-0.651,1.548-1.545c0.303,0.04,0.219,0.469,0.255,0.775c1.745-0.666,2.817-2,4.127-3.097
			c-0.633-0.448-1.257,1.307-2.319,1.287c1.059-1.002,1.921-2.205,3.607-2.576c-0.08,0.605-0.798,0.578-1.028,1.032
			c2.701-1.001,5.695-3.05,8.246-5.415c1.828-0.176,3.477-1.775,5.415-3.093c14.395-9.804,29.887-20.108,45.106-28.869
			c-0.219-0.595-1.34,0.753-1.805,0c2.383-2.41,4.797-3.244,6.703-4.899c-0.187,0.238-0.468,0.391-0.774,0.517
			c0.183,0.642,0.688-0.478,1.289-0.259c-0.309,0.979-1.786,0.791-2.063,1.807c2.813-1.492,5.636-2.521,7.996-4.383
			c0.477-0.38,0.271-0.78,0.774-1.289c2.253-2.289,6.682-2.506,8.247-6.187c-4.264,2.007-7.842,4.701-12.374,6.443
			c4.127-2.639,8.814-5.398,12.374-7.217c1.429-1.314,2.651-3.113,5.672-3.354c-0.226-0.987-0.601-0.621-1.552-0.514
			c0.092-1.115,1.258-1.151,1.037-2.575c0.227,0.198,0.581,0.274,1.028,0.255c1.364-2.359,2.726-3.411,4.639-4.896
			c0.577-0.145,0.371,0.491,0.776,0.514c0.721-0.253-0.373-0.685,0.255-1.028c0.602,0.285,0.692-0.057,1.293,0.515
			c-0.062,0.371-0.771,0.088-0.773,0.515C1343.031,613.266,1344.229,613.014,1344.354,613.836z M1351.053,616.671
			c-0.484,0.034-2.592-0.672-2.061,0.261C1349.291,616.44,1350.686,617.787,1351.053,616.671z M1298.729,652.503
			c0.886-0.239,2.336-1.261,2.06-1.805C1300.164,651.365,1298.981,651.47,1298.729,652.503z M1259.028,679.568
			c-0.617,1.016-2.57,2.063-2.317,3.094c3.558-3.831,7.977-6.801,12.118-10.052c-0.819,0.373-0.271,1.62,0.256,1.03
			c1.352-1.783,5.986-3.49,8.248-4.896c1.525-2.601,5.833-4.654,7.993-7.479c-5.258,1.717-8.77,7.828-13.663,9.798
			c1.812-1.452,3.846-2.683,5.153-4.641c-3.08,2.201-6.249,4.318-9.28,6.445c-3.008,2.108-5.828,4.314-8.508,6.188
			c0.789-0.593,1.408-1.347,2.066-2.066c-2.118,0.636-3.129,2.372-4.639,3.611C1257.427,681.447,1258.092,678.726,1259.028,679.568z
			 M1349.25,613.836c0.81-0.296,0.625,0.405,1.032,0.518C1351.169,613.662,1349.348,612.802,1349.25,613.836z M1346.416,620.024
			c0.979,0.12,1.61-0.112,1.801-0.774C1347.081,619.394,1346.586,619.418,1346.416,620.024z M1338.68,630.85
			c0.895-0.218,1.063-1.171,1.805-1.546c0.005,0.26,0.454,0.326,0.515,0c-0.346-0.081-0.488-0.368-1.029-0.259
			C1339.987,629.933,1337.989,630.141,1338.68,630.85z M1333.786,633.169c1.614,0.07,1.936-1.154,2.576-2.062
			C1335.186,631.478,1334.538,632.377,1333.786,633.169z M1319.863,638.327c0.441-0.854,1.943-0.632,2.063-1.808
			C1321.123,636.839,1319.58,637.771,1319.863,638.327z M1259.285,673.126c1.117-0.434,1.336-1.759,3.094-1.546
			c3.035-2.559,6.516-4.549,9.799-6.963c3.292-2.42,6.907-4.196,10.309-6.443c5.07-3.348,10.017-7.157,14.952-10.311
			c1.631-1.043,3.67-1.587,4.637-3.352C1287.703,653.766,1271.976,663.039,1259.285,673.126z M1290.733,654.563
			c-0.198,1.071,2.135-0.642,1.29-1.032C1291.692,653.977,1291.492,654.545,1290.733,654.563z M1285.063,659.461
			c0.743-0.72,1.762-1.16,2.323-2.062C1286.379,657.688,1284.892,658.848,1285.063,659.461z M1265.475,673.384
			c1.517,0.002,3.037-2.565,3.091-2.324C1267.326,671.626,1266.31,672.412,1265.475,673.384z M1255.166,680.599
			c0.872-0.845,1.958-1.476,2.576-2.576C1256.775,678.608,1255.272,680.018,1255.166,680.599z M1125.503,682.404
			c0.139-2.011-4.414-1.499-5.413-2.579c-3.329,2.288-7.863,4.636-6.7,10.569c-2.162,2.252-2.371,7.911-1.033,11.602
			c-0.303,0.038-0.731-0.047-0.772,0.258c2.427,9.847,1.863,22.908,5.153,31.19c6.355-13.289,13.902-26.58,15.467-43.821
			c-1.383-3.603-6.03-3.938-9.795-5.159c2.054,0.013,2.231,0.023,4.641-0.256C1126.952,683.078,1126.111,682.287,1125.503,682.404z
			 M1240.214,693.23c0.246-1.39,2.499-2.134,2.317-3.097c-1.353,1.337-4.1,2.571-4.383,4.13c0.496,0.805,1.056-1.842,1.549-1.033
			c-0.354,1.193-1.178,1.917-2.062,2.577c-0.056,0.438,0.289,0.638,0.257,0c0.805-0.403,1.402-1.003,1.806-1.807
			c2.513-1.181,4.121-3.267,5.929-5.152c1.145-0.231,1.683-1.067,2.579-1.548c-0.122,1.25-1.912,0.836-1.545,2.578
			c2.569-2.329,5.209-4.588,7.479-7.217c-1.596,0.126-1.677,1.762-3.098,2.06c0.431-0.601,1.44-0.622,1.289-1.805
			c-1.418,0.647-1.907,2.221-3.092,3.096c0.362-1.415,2.782-3.532,2.834-4.124C1248.271,685.819,1243.92,689.204,1240.214,693.23z
			 M1242.531,693.23c0.613-0.981,3.516-2.264,2.581-3.097C1244.756,691.507,1242.327,692.162,1242.531,693.23z M1231.45,698.9
			c0.969-0.812,1.772-0.768,2.834-1.805c0.027,0.292-0.373,0.4,0,0.518c0.898-0.74,2.521-2.115,2.319-3.094
			C1235.176,696.1,1232.32,697.624,1231.45,698.9z M1172.936,731.381c3.161-0.79,4.405-4.873,3.604-8.764
			C1175.167,725.363,1173.949,728.271,1172.936,731.381z"/>
		<path fill="#FFFFFF" d="M1226.552,707.408c-0.04,1.192-2.368,3.603-3.607,3.606
			C1223.954,709.62,1225.285,708.549,1226.552,707.408z"/>
		<path fill="#FFFFFF" d="M1304.398,640.388c-0.633,0.341,0.282,0.96-0.26,1.031c-0.023,0.413-0.349-0.816-1.03,0.255
			C1302.718,641.432,1303.728,640.421,1304.398,640.388z"/>
		<path fill="#FFFFFF" d="M1261.866,667.968c0.193,1.193-0.984,0.359-1.028,0.774
			C1260.302,668.601,1261.181,667.743,1261.866,667.968z"/>
	</g>
	<g>
		<path fill="#FFFFFF" d="M996.22,678.913c-0.259,0-0.514,0-0.774,0c0.024,3.55-2.703,4.342-3.607,6.959
			c-0.79,0.187-0.942-0.265-1.546-0.256c-0.727,0.047-1.1,0.446-1.031,1.288c-1.939-0.244-3.005,1.573-4.897,0.774
			c-2.28-0.964-5.334-12.476-4.385-16.241c1.932-3.652,4.592-6.581,7.478-9.279c1.296,0.2,1.415,0.248,2.062-0.518
			c3.633,0.318,3.469,4.436,5.413,6.444c0.013,0.66-0.19,0.315-0.514,0.259c0.495,2.339,2.079,3.59,2.319,6.188
			C995.56,673.98,996.689,676.99,996.22,678.913z"/>
		<path fill="#FFFFFF" d="M1076.901,750.573c0.095,0.363,0.457,0.023,0.518-0.258c0.274,3.696,0.141,7.496-0.259,12.89
			c-0.141,1.311,0.912,0.004,0.771,1.028c0.258,5.611-0.074,13.286,2.322,17.529c-0.909,0.758-0.181,2.604-0.257,3.095
			c-1.28,0.506-1.131,0.813-0.772,2.579c-0.501,0.202-1.761,0.472-2.063,1.286c-0.358,0.956,0.229,2.008,0,2.832
			c0.1-0.354-1.528,0.432,0,0.263c-0.04,0.641-0.873,0.074-1.027,0c-0.667,0.272,0.47,0.872,0.508,1.286
			c-0.688,0.617-1.169-0.158-2.056,0.258c-0.229,1.74-1.392,1.836-0.52,3.353c-0.915,0.137-0.632-0.913-1.547-0.773
			c0.268,1.406-0.473,0.751,0.517,2.316c-1.17,0.206-1.338,1.413-2.319,1.807c-3.912,0.219-4.905-2.485-6.701-4.378
			c0.426-0.837,0.373-0.553,0.257-1.807c-7.25-25.681,0.049-56.173-0.517-81.714c-3.171,5.261-5.288,11.667-7.477,18.302
			c-2.032,6.164-4.547,12.687-5.928,19.849c-2.205,11.44-4.879,25.136-10.052,35.572c-1.491,3.001-3.511,8.036-5.674,9.537
			c-0.452,0.317-4.285,1.962-4.897,2.06c-3.616,0.588-7.274-0.849-8.765-3.605c-4.357-18.484-2.222-36.048-2.32-53.618
			c-2.495,5.218-3.091,11.132-4.637,16.756c-1.557,5.66-3.368,11.229-4.9,16.756c-1.447,5.229-2.18,10.621-3.605,15.465
			c-1.668,5.646-3.829,10.233-6.189,15.465c-3.333,4.357-14.379,11.524-20.362,4.383c-6.012-7.179-5.855-25.232-6.444-38.666
			c-0.819-18.622-0.42-44.211,5.153-61.092c1.397-1.094,2.456-2.526,4.384-3.092c1.629,0.26,2.282,1.498,4.124,1.549
			c7.329,9.052-0.026,24.653-1.806,34.798c-2.33,13.301,3.285,25.605,3.868,40.212c6.572-14.305,10.384-31.068,15.983-46.399
			c2.742-7.512,5.981-14.95,9.535-21.652c3.539-6.67,7.239-13.468,13.661-17.27c1.562,1.014,4.279,0.878,5.932,1.804
			c1.063,0.828,1.385,2.395,2.836,2.835c4.712,12.46-0.347,27.941-0.258,40.986c7.113-22.53,14.555-44.729,30.672-58.258
			c1.885-0.181,3.297-0.828,4.382-1.804c1.863,0.388,3.417-0.142,4.896,0.773c2.04,1.257,1.84,4.306,3.871,5.928
			c0.717,7.153,0.853,15.121,0.257,22.942c-0.487,6.387-0.683,15.031-1.806,22.43c-0.298,1.969-1.441,4.322-0.258,5.153
			C1077.108,742.683,1077.642,747.765,1076.901,750.573z"/>
	</g>
	<g>
		<path fill="#FFFFFF" d="M757.411,845.552c0.604,2.193,0.614,8.196-0.292,11.559C757.149,853.026,757.433,849.794,757.411,845.552z
			"/>
		<path fill="#FFFFFF" d="M760.011,867.218c0.536,0.908,0.617,2.271,0.578,3.757C759.476,870.639,760.23,868.445,760.011,867.218z"
			/>
		<path fill="#FFFFFF" d="M757.988,799.615c1.733-3.613,0.163-8.45,1.156-14.155c0.068,7.729,0.544,19.838-0.29,29.755
			c-0.103,1.214-0.394,4.358-0.578,1.736c-0.149-2.138,0.557-2.626,0-5.203c-1.285,6.018,0.107,15.848-1.735,21.377
			c-0.865-2.985,0.287-7.988-0.577-10.976c-0.625,9.124-1.125,19.31-0.579,24.268c-0.392-0.091-0.24-0.723-0.29-1.155
			c-0.654,0.308-0.109,1.816-0.29,2.599c0.339-0.049,0.244-0.524,0.29-0.865c0.61,3.646,0.48,5.723,0.579,12.128
			c0.091,5.97,0.867,10.675,1.156,17.342c0.109,2.521-0.892,5.259-0.579,6.93c0.12,0.629,0.843,0.676,0.866,0.867
			c1.07,8.581-0.2,16.271,1.734,23.112c0.233-7.852-0.75-18.766-0.579-23.979c-1.603-4.862-0.858-13.983-0.866-20.512
			c0.871,2.463,0.299,1.227,0.288-0.866c-0.008-1.633,0.684-4.317,0.578-4.91c1.157,7.229,0.825,17.188,1.733,24.557
			c0.393-0.092,0.24-0.725,0.291-1.156c0.501,0.464,0.625,1.302,0.579,2.311c0.651-0.217,0.111-1.622,0.289-2.311
			c-0.564,11.897,1.721,22.319,2.6,34.087c0.108,1.468-0.359,3.227-0.289,4.915c0.371-0.994,1.196,1.95,1.443,3.463
			c1.207,7.346,2.55,18.465,5.201,25.428c1.044,0.269,0.402-1.141,0.578-1.735c1.025,1.246,0.499,2.442,0.868,4.042
			c-0.668,0.09-0.321-0.83-0.868-0.863c-0.619,1.028,1.84,5.413,0.868,4.914c-0.776,1.305-1.335-2.894-2.602-4.337
			c-0.019,1.211,0.957,3.493,0.578,4.627c-0.161,0.833-0.451-0.448-0.866-0.29c-0.518,1.223,0.859,2.045,0.576,3.464
			c-1.411,0.161-1.194-1.312-2.022-1.729c-0.729,1.477,0.764,3.64,0,4.62c-0.594,0.569-0.271,0.569-0.867,0
			c1.167,2.976-1.381,1.797-0.579,4.619c0.05,1.222-0.443-0.002-0.865,0c-0.602,0.637,0.456,1.241,0.289,2.316
			c-1.091-0.069-0.827-1.488-1.734-1.737c1.432,3.073-0.262,2.684-2.31,3.469c-1.492-2.739-4.689-6.695-4.913-11.269
			c-0.939-0.601-0.341-0.858-0.578-2.019c-0.117-0.575-0.69,0.358-0.868-0.294c-0.09-0.334,0.547,0.159,0.578-0.284
			c0.07-1.013-1.172-3.384-1.734-5.493c-10.993-41.301-11.83-96.229-12.131-148.201c-0.079-13.303,0.674-26.579,1.155-39.29
			c-1.27,1.679-1.858,3.863-2.31,5.777c-1.957,8.259-4.198,17.509-6.068,26.288c-0.497,2.344-0.179,4.827-0.58,8.091
			c-0.173,1.433-0.735,4.737-1.154,7.221c-0.515,3.056-1.662,6.074-2.31,8.956c-3.681,16.309-3.272,36.017-9.824,51.713
			c-2.076,10.539-5.293,19.938-10.979,26.866c-10.327,3.274-13.559-5.14-15.312-13.287c-1.083-5.03-1.935-10.357-2.889-15.604
			c-4.965-27.256-8.755-55.872-10.111-84.356c-5.18,16.771-4.621,36.172-4.621,54.602c0,5.75-0.348,11.732-0.289,16.76
			c-2.869,14.728-4.262,28.925-1.735,43.911c1.597,9.451,2.108,18.009-1.732,24.555c-1.756,1.328-3.149,3.015-4.332,4.91
			c-2.798,1.161-7.659,3.354-10.111,0.58c-5.367-6.078-4.149-20.525-5.49-28.313c0.118-0.554,1.12-0.228,0.867-1.154
			c-0.576-11.528,0.536-28.972,1.732-39.869c0.331-0.908-0.452-0.701-0.577-1.153c1.71-13.511,3.272-25.382,4.045-37.845
			c3.753-22.947,5.786-50.464,13.29-71.646c1.339-5.981,3.668-10.971,8.377-13.576c2.723,0.068,5.175,0.407,6.934,1.442
			c0.806,4.696,1.152,7.128,2.022,10.113c-1.687,23.407,7.694,46.237,10.978,67.886c0.793,5.225,1.249,10.829,2.311,15.602
			c1.178,5.293,0.819,12.414,2.021,18.778c4.205-21.09,7.911-41.89,12.711-62.688c4.792-20.766,11.171-42.152,17.621-62.406
			c4.377-13.728,7.93-27.78,14.447-40.153c1.091-0.419,0.555,0.791,1.444,0.578c1.346-1.352,2.515-2.879,4.334-3.754
			c1.912,1.046,4.713,0.515,7.511,1.154c0.033,1.698,1.999,1.471,2.887,2.312c-0.402,0.751-0.572,1.736-0.867,2.602
			c1.235,6.642-0.03,15.713-1.156,24.844c-0.463,3.765-0.264,7.906-0.578,11.843c-0.331,4.17-1.429,8.349-1.443,11.557
			c-0.004,0.41,0.568,0.647,0.577,0.576c-0.195,1.829-1.597,3.496-0.577,5.201c-1.582,8.106-2.322,16.359-2.312,24.847
			c0.508-0.07,0.658-0.5,0.578-1.16c0.248-0.052,0.272,0.114,0.291,0.293c-0.46,0.237,0.051,1.459-0.291,2.308
			c-0.039,0.097-0.495-0.653-0.289-0.865c-1.023,1.062-0.732,6.979-0.868,9.821C758.517,784.165,758.166,794.016,757.988,799.615z
			 M758.276,805.395c0.051-1.306,0.238-4.487-0.29-4.913C758.177,802.027,757.607,804.328,758.276,805.395z M757.988,882.527
			c1.5-2.791,0.26-8.782,0-10.689C757.996,876.417,757.719,878.413,757.988,882.527z M754.231,890.619
			c-1.234-1.315-0.191-3.667-0.866-5.78c-0.741,1.977-0.104,4.085-0.29,6.932c1.137,0.464,0.101-1.245,0.868-1.151
			C753.941,890.776,754.178,890.947,754.231,890.619z M754.231,896.396c-0.393,5.32,0.356,12.541,1.735,16.761
			c-1.034-7.326-0.707-14.176-2.022-21.672c-0.424,0.675,0.411,2.32-0.579,1.156C753.325,894.268,753.46,896.441,754.231,896.396z
			 M765.5,940.019c0.525,3.123,0.04,4.188,1.156,6.354c0.113-2.121,0.584-5.181-0.577-6.93
			C766.044,939.796,765.989,940.125,765.5,940.019z"/>
		<path fill="#FFFFFF" d="M738.054,784.303c0.789,1.187-0.331,2.938-0.578,4.045C737.087,788.612,737.939,785.434,738.054,784.303z"
			/>
		<path fill="#FFFFFF" d="M736.609,790.662c0.931,1.138-0.609,2.264-0.579,3.464C735.409,793.295,736.674,791.892,736.609,790.662z"
			/>
		<path fill="#FFFFFF" d="M757.12,834.862c0.826,1.697-0.026,4.2-0.288,5.778C756.463,839.398,757.05,836.625,757.12,834.862z"/>
		<path fill="#FFFFFF" d="M764.633,907.372c0.447,1.096,0.563,2.52,0.579,4.045c0.829-5.473-0.926-12.144-0.579-16.466
			c-1.471,0.981-0.657-2.473-0.869-4.332c2.119,6.05,1.998,16.178,3.468,23.112c-1.324-0.029-0.611-2.088-1.155-2.891
			c-1.19,2.671,0.077,7.271,0.288,10.403C764.841,917.179,764.807,911.287,764.633,907.372z"/>
		<path fill="#FFFFFF" d="M763.476,906.797c-0.956-3.347-0.718-6.137-0.867-10.113c0.337,0.047,0.514-0.064,0.576-0.288
			C763.362,897.969,763.446,903.119,763.476,906.797z"/>
		<path fill="#FFFFFF" d="M767.232,914.309c1.252,2.771,2.583,11.479,3.466,17.331c-0.719-0.435-0.362-1.952-0.867-2.6
			c-0.477,0.037,0.302,1.207,0,2.022C768.437,925.71,767.368,920.198,767.232,914.309z"/>
		<path fill="#FFFFFF" d="M772.144,940.019c1.828,2.055,2.645,6.688,3.179,9.533C773.108,946.896,773.514,943.242,772.144,940.019z"
			/>
	</g>
	<g>
		<path fill="#FFFFFF" d="M1056.063,974.557c0.868-1.643,4.751-3.831,6.706-4.388c1.438-1.48,3.275-2.562,5.412-3.35
			c0.224,0.828-0.849,0.352-0.774,1.031c3.56-1.061,6.995-3.255,10.571-5.156c3.494-1.862,7.272-3.421,10.309-5.67
			c3.315-0.635,5.329-2.572,8.506-3.352c8.744-6.635,20.104-12.032,30.417-16.241c-2.018,3.711-6.137,5.561-9.023,8.765
			c-2.75,3.056-5.571,6.135-8.506,9.277c-1.415,1.513-3.082,3.066-4.382,4.642c-2.718,3.296-5.764,5.683-9.021,8.761
			c-1.494,1.409-2.716,3.232-4.381,4.386c-10.923,7.562-22.597,13.948-33.514,21.394c-7.609,5.188-5.285,5.889-13.4,11.469
			c-4.785,3.289-12.054,10.209-19.851,5.415c-2.949-1.814-5.457-6.483-6.184-11.085c-0.772-4.826,0.915-11.189,1.028-17.784
			c0.111-6.504,0.466-13.488,0.515-19.848c0.073-9.982,0.96-22.62,0.26-32.225c-0.08-1.065-0.092-2.138-0.774-3.089
			c0.167-16.428,1.697-33.099,1.545-51.041c-0.104-12.263,1.233-24.492,4.38-34.027c1.33-4.017,3.41-9.181,5.675-11.343
			c1.399-1.337,3.247-1.647,5.155-1.806c1.564,1.421,4.276,2.542,5.155,5.156c0.671,2.01,1.815,5.963,1.807,7.219
			c-0.014,0.969-0.702,2.408-0.775,3.091c-0.945,8.835,0.433,16.393,1.033,25.269c0.467,6.915,0.771,14.042,1.543,20.876
			c1.467,12.925-0.493,26.41-0.512,39.955c-0.025,17.614-0.848,32.878-0.517,51.553c7.449-3.122,1.608-3.417,9.537-6.059
			c1.361-0.7,2.37-1.754,3.866-2.318C1058.623,973.065,1056.336,974.152,1056.063,974.557z M1065.86,969.137
			c-2.214,0.968-4.332,2.029-6.187,3.354C1062.169,971.806,1063.871,970.329,1065.86,969.137z"/>
		<path fill="#FFFFFF" d="M1080.038,960.373c-0.433,0.449-2.255,1.895-2.318,1.031
			C1078.679,961.25,1078.983,960.437,1080.038,960.373z"/>
		<path fill="#FFFFFF" d="M1073.337,964.243c0.062-1.064,2.862-1.602,3.865-2.58
			C1077.071,962.655,1074.362,963.291,1073.337,964.243z"/>
	</g>
	<g>
		<path fill="#FFFFFF" d="M1334.142,798.404c-0.656,1.842-2.54,2.626-3.846,3.905c-0.032-0.376,1.022-0.896-0.058-0.771
			C1331.588,800.745,1332.506,799.482,1334.142,798.404z"/>
		<path fill="#FFFFFF" d="M1086.3,833.711c5.851-0.818,10.118,4.619,12.629,9.911c1.286,2.693,3.131,5.525,2.214,8.883
			c-0.84,3.082-10.256,9.347-13.838,8.528c-2.887-0.657-3.712-3.711-5.86-5.768c0.075-2.121-0.45-3.56-1.191-5.595
			c0.032-0.973,1.354-2.576-0.213-2.829c1.102-0.866,0.377-2.121,0.545-3.144C1081.231,839.654,1083.573,836.419,1086.3,833.711z"/>
		<path fill="#FFFFFF" d="M1176.107,959.867c0.671-0.128,0.87,0.292,0.85,0.971C1176.281,960.965,1176.089,960.547,1176.107,959.867
			z"/>
		<path fill="#FFFFFF" d="M1176.195,964.518c0.401,0.812,0.198,1.703,0.215,2.826
			C1175.881,966.948,1175.902,964.997,1176.195,964.518z"/>
		<path fill="#FFFFFF" d="M1228.217,892.646c0.634-0.081,0.459,0.284,0.018,0.255c5.851-4.864,10.392-11.223,15.818-16.687
			c5.449-5.492,10.776-11.162,15.771-17.204c18.339-22.184,33.352-44.794,56.514-63.673c4.874-3.978,10.126-7.904,15.382-12.007
			c4.869-3.797,9.897-9.401,15.113-12.241c2.077-1.13,4.319-2.123,6.57-2.042c-0.838,0.975,3.14,4.131-0.366,5.454
			c0.433,1.098-0.05,1.528,0.447,2.549c-1.408,0.232-1.58,1.529-2.417,2.252c-0.152,0.431,1.243,0.327,1.028-0.075
			c-0.943,2.313-4.219,4.704-6.478,6.686c0,0.466,0.353,0.52,0.335,1.009c-2.406,0.27-8.706,6.697-11.412,9.899
			c0.448,0.821,0.586-0.578,1.266-0.353c-0.616,0.592-0.59,1.735-1.666,1.935c-0.662-0.556,0.349-0.722,0.416-1.328
			c-0.676-0.604-0.507,0.584-1.522,0.374c-10.016,11.017-22.371,20.023-30.107,33.007c-1.932,1.782-3.508,3.871-4.695,6.296
			c-6.738,9.193-14.617,17.4-20.996,26.899c-2.542,2.19-5.987,5.559-7.297,9.592c-2.509,2.411-4.334,5.415-6.643,7.994
			c-0.584-0.364,0.883-0.989,0.912-1.618c-3.548,3.438-6.979,6.979-9.498,11.304c-0.513,0.119,0-0.746,0.204-0.791
			c-0.627-0.292-1.277,1.351-1.149,1.897c-1.401-0.333-1.374,0.929-2.42,2.249c-1.189,1.502-3.851,3.465-6.041,5.622
			c-1.668,1.633-3.306,3.727-5.291,5.306c-0.409,0.104-0.463-0.21-0.793-0.199c-0.37,0.136,0.127,0.318,0.061,0.766
			c-1.494-0.661-1.641,1.321-2.418,2.253c-1.218,1.444-3.184,2.008-4.438,2.916c-1.144,0.831-1.939,2.275-3.109,3.334
			c-3.738,3.377-8.622,6.772-13.78,9.302c-7.451,3.649-15.351,3.367-18.67-4.295c-1.298-0.334-2.238,0.277-2.754,1.242
			c-0.304-0.024-0.253-0.452-0.314-0.755c-1.17,0.354-1.297,1.607-2.158,2.228c-0.472-0.149-0.068-0.463-0.059-0.772
			c-1.085,0.113-1.41,0.872-1.959,1.442c-0.388-0.086,0.075-0.337-0.059-0.772c-2.661,2.65-5.875,3.682-8.135,5.263
			c-0.004-0.887,1.321-0.629,1.44-1.402c-1.888-0.123-4.952,2.015-6.761,2.831c0.064,0.422,1.792,0.291,1.797-0.134
			c0.671,0.44-1.077,0.827-1.467,1.143c0.504,8.698,3.753,16.459,1.567,24.442c0.197-3.722-0.945-10.889-0.839-14.674
			c-1.401,4.837,0.159,10.976-0.112,15.776c-0.034,0.573-0.425,1.478-0.896,1.874c0.271-1.247-0.242-3.084-0.103-4.898
			c-1.083,2.507-0.208,4.159,0.019,7.232c-0.375,0.773-0.305-1.298-0.39-1.778c-0.249,0.184-0.223,0.613-0.735,0.566
			c-0.715-8.014-0.628-17.321-3.162-25.09c0.795,9.569,2.69,19.286,2.325,27.74c-1.067-0.633,0.01-2.366-0.782-3.557
			c-0.212,4.104,0.506,8.377,1.047,10.519c-1.494,1.588,0.696,7.386,0.879,11.824c0.447,0.064,0.473-0.237,0.476-0.553
			c1.173,2.048,0.872,6.139,0.908,8.723c0.708-2.041,1.3-4.176,1.029-7.055c0.583,0.063,0.107,1.361,0.629,1.502
			c0.606-0.52-0.095-2.165,1.134-2.151c-0.007,4.331-0.504,7.831-0.365,12.431c1.013-2.977,1.496-6.282,1.621-9.427
			c1.771,3.184-0.479,9.311,0.827,11.055c-0.864,3.431-0.261,8.121-3.423,9.559c-0.075-0.695,0.385-0.546-0.075-1.027
			c-0.262,0.077-0.228,1.792-0.735,0.573c-0.234,0.354-1.293,1.352,0.074,1.027c-1.783,0.71-1.725,3.005-2.223,4.822
			c-1.053-0.511-0.628,0.433-1.228,0.862c0.119,0.609,0.673-0.335,0.734-0.568c-1.428,3.747-6.266,8.284-9.222,11.544
			c-3.811,0.757-6.799-1.006-8.769-3.222c-6.127-6.88-10.399-27.126-12.271-39.665c-1.881-12.621-1.739-22.345-2.155-35.769
			c-0.49-15.868-0.089-28.303-1.245-44.369c-5.394,7.044-12.281,15.302-19.07,21.586c-6.237,5.787-12.463,11.359-18.791,14.843
			c-22.274,12.272-25.577-25.35-23.134-43.249c0.733-5.34,2.193-9.988,3.828-14.502c1.585-1.282,3.623-2.169,5.169-3.487
			c2.406,0.464,1.614,0.8,3.478,1.551c-1.651,2.341-0.381,5.51-0.672,8.319c-0.392,3.748-1.334,7.067-0.583,12.971
			c1.01,7.92,3.577,14.081,7.388,19.35c4.612-2.124,7.188-5.999,11.528-8.354c7.997-7.95,17.331-14.74,24.075-23.77
			c1.878-0.166,3.791-5.338,5.672-7.143c0.197-0.612-0.05-0.832,0.118-1.819c3.367-2.785,3.095-7.295,3.509-11.896
			c1.03-11.442,3.812-22.558,7.719-31.594c2.122-0.415,1.715-3.01,2.78-4.346c0.879-0.109,0.044,0.874,1.104,0.955
			c0.486-0.381,0.486-1.185,0.635-1.859c0.332,1.54,1.755,0.714,2.433,1.371c0.379-0.874,0.729-1.775,0.814-2.903
			c1.548,0.591,1.664,1.126,2.271,2.671c0.892-0.942,1.88-1.899,4.053-1.076c-0.101,0.861-0.441,1.16,0.573,0.732
			c1.361,9.729-1.654,19.338-2.459,29.393c-3.961,6.459-5.387,19.827-5.442,27.549c0,0.01-0.513,0.035-0.508,0.037
			c0.023,0.329,1.061,0.483,0.072,1.03c0.419,0.779,1.243-0.45,1.564,0.142c-0.173,0.884-0.574,0.073-0.994,0.591
			c0.282,1.045,1.728,0.639,2.334,0.087c2.005,0.929,2.839,2.726,3.451,4.652c0.683-0.286-0.422-0.779-0.12-1.546
			c1.384,3.685,1.812,8.143,3.771,12.387c0.792-0.968-0.146-3.622-0.896-5.104c2.661,1.014,3.303,6.782,4.645,10.252
			c1.003,1.322,1.005,2.324,1.571,3.759c3.912-1.206,8.902-1.477,11.891-3.471c0.043,1.676-2.89,2.839-3.805,4.421
			c-0.192,0.327,0.525,1.297-0.439,1.066c2.574-0.188,4.543-2.983,7.762-3.422c-0.068,0.345-0.423,0.435-0.459,0.81
			c1.381-0.338,2.497-0.895,3.227-1.795c-2.39-13.665,1.91-25.437,3.48-36.446c0.247-0.014,0.224,0.303,0.295,0.495
			c0.307-6.896,3.419-12.06,5.893-18.019c-0.459-0.533-0.849,1.015-1.189,1.383c-0.644-0.27,0.818-3.006,0.894-1.878
			c1.186-4.563,4.305-9.407,7.01-13.448c0.255-0.012,0.223,0.298,0.298,0.497c1.275-2.555,3.282-4.231,6.118-4.595
			c3.096-2.222,5.466-5.074,8.771-7.115c3.594,0.288,7.731,0.183,10.992,1.762c0.319,1.771,1.865,2.118,3.06,2.876
			c3.489,6.513-0.258,13.379,0.906,19.063c0.107,0.528,0.146,1.609,0.15,2.054c0.037,6.396-1.605,12.921-4.036,18.654
			c0.558,0.077,0.465-0.403,0.463-0.809c0.242,3.582-2.472,6.695-3.661,9.84c-0.305-0.021-0.253-0.456-0.317-0.757
			c-1.293,0.615-1.037,3.697-2.597,3.296c-0.022-2.513,1.894-2.24,2.007-4.284c0.323,0.088,0.552,0.29,0.574,0.732
			c2.374-2.359,2.288-6.848,3.361-10.332c-0.465-0.614-0.771,0.924-0.931,1.366c-0.447-0.325,0.283-1.668,0.064-2.594
			c-1.228,0.627-0.237,3.163-0.977,4.211c-0.687-0.606-0.047-2.112,0.043-2.847c-3.287,2.147-4.258,8.351-5.762,12.834
			c-0.353-0.052-0.259-0.62-0.335-1.004c-1.747,4.001-6.273,8.547-8.272,13.801c0.529-0.109-0.017-1.138,0.418-1.324
			c0.463,0.201,0.729,0.849,0.352,1.266c0.942-1.593,1.516-3.505,2.739-4.855c-0.122,0.215-0.238,0.436-0.196,0.788
			c0.58-1.742,1.843-2.901,2.221-4.819c0.846-0.328,0.463,0.772,0.61,1.25c0.459-0.649,0.532-1.628,0.854-2.395
			c0.643-0.008,0.141,0.867,0.078,1.03c0.569-1.354,1.934-2.023,2.318-3.535c-1.677,4.651-5.239,11.843-8.851,16.432
			c0.106-0.392,0.331-0.678,0.437-1.066c-1.087,0.266-2.208,2.587-3.074,3.848c0.761-0.625,1.623-1.168,2.735-1.495
			c0.714,0.18-0.199,0.922-0.162,1.302c4.509-1.026,6.27-6.448,10.201-8.776C1227.916,893.029,1228.229,892.978,1228.217,892.646z
			 M1211.654,837.014c1.492,0.081,1.296-1.285,2.198-1.712C1212.286,835.153,1212.602,836.626,1211.654,837.014z M1223.755,846.712
			c0.09-0.947-0.608-0.974-1.368-0.937C1222.53,846.455,1223.133,846.592,1223.755,846.712z M1223.909,848.765
			c-0.041-0.515-0.082-1.025-0.118-1.541c-0.802-0.258-1.36,0.317-2.333-0.084C1221.847,848.173,1222.96,848.373,1223.909,848.765z
			 M1219.649,850.637c-0.637-0.554-0.795,0.535-1.777,0.391c1.036,2.146,3.795,3.785,4.296,5.622
			c-0.097-0.397-0.576-0.133-0.774,0.059c-0.375-2.447-2.261-3.145-3.92-4.101c0.513,2.479,4.093,2.88,3.524,5.684
			c-0.619-0.771-0.902-1.932-1.971-2.181c-0.032,2.933,3.083,5.7,1.602,7.636c0.15-2.594-2.161-4.731-1.546-6.863
			c-1.188-0.671-1.344-2.537-3.514-2.062c-1.165,2.682-3.08,4.72-3.264,8.257c-2.69,3.401-3.632,11.607-3.987,15.804
			c0.214-0.244,0.266-1.819,0.694-1.086c-0.391,4.92-1.401,9.327-0.857,12.73c2.069-0.445,1.284-2.211,2.579-3.553
			c0.379,0.611-0.678,1.125,0.092,1.287c4.771-5.609,7.833-13.936,9.246-21.625c2.312-3.039,3.468-8.162,4.021-11.938
			c-0.729,0.094-0.704-0.676-1.111-0.949c0.617,0.033,0.552,0.858,1.347,0.671c-0.427-2.873,0.819-5.182-1.985-5.793
			c-0.733,0.172,1.147,1.027,0.354,1.267c-0.094-0.398-0.578-0.135-0.771,0.056c-0.03-0.427-0.064-0.858-0.097-1.284
			c-0.653-0.169-1.404-0.233-2.332-0.084c0.48,1.279-0.021,1.337-0.671,1.344C1219.201,850.035,1219.48,850.274,1219.649,850.637z
			 M1165.293,898.123c-0.868-0.496-0.181-0.566-0.095-1.288c-1.077-0.982-0.78-3.564-2.124-4.234
			C1163.653,894.442,1164.021,898.011,1165.293,898.123z M1162.535,895.74c-0.614-0.219-0.123-1.719-1.146-1.462
			C1161.947,894.896,1161.698,896.272,1162.535,895.74z M1168.586,904.077c-0.12-1.171-0.187-2.395-0.986-2.77
			C1168.007,902.141,1168.071,903.367,1168.586,904.077z M1162.105,980.041c0.017-0.306-0.099-0.728,0.197-0.793
			c0.28,3.033,1.101,5.427,2.122,7.597c0.852-19.905-1.679-40.805-5.604-57.743c-0.771,0.246-0.958-0.19-1.561-0.139
			c-0.09,4.862-1.475,8.787-1.338,13.282c0.202-1.188,0.044-2.688,0.507-3.656c0.951,4.192-0.615,8.802,1.271,13.602
			c-0.482,2.356,0.204,4.306-0.273,6.743c0.514,0.037,0.487-0.386,0.736-0.569c0.33,2.198-0.806,4.652,0.605,4.606
			c-0.215,0.703-0.812,1.067-0.896,1.875c0.51,0.037,0.481-0.384,0.732-0.567c0.17,3.961,0.054,7.643,0.627,11.839
			c-0.852-0.435-0.583,1.807-0.56,2.886c0.915,0.06-0.102-1.9,0.576-2.629c0.72,3.825,0.626,10.229,1.831,14.082
			c0.784-0.641-0.592-1.889,0.082-2.333c0.786,2.452,0.763,5.084,2.098,7.34c2.742-6.469-2.729-13.934-2.104-21.299
			C1162.36,975.754,1161.51,978.922,1162.105,980.041z M1164.528,950.133c-0.018,0.806,0.69-0.709,0.788,0.198
			c0.388,3.927,0.945,7.66,1.854,10.979c-0.48-8.6-2.443-17.679-3.681-25.055c-0.341-2.03,0.134-4.982-2.002-6.059
			c-0.032,0.313-0.272,0.181-0.512,0.036C1162.493,937.322,1162.864,942.061,1164.528,950.133z M1155.375,931.431
			c0.569-0.557-0.061-0.509-0.257,0.018c0.166,3.676-1.434,7.105-0.776,10.397C1155.146,938.276,1155.312,935.632,1155.375,931.431z
			 M1174.703,944.464c-0.847-4.798,0.303-11.546-1.865-14.594C1172.842,933.499,1173.947,940.019,1174.703,944.464z
			 M1176.911,936.026c-0.456-2.043-0.137-4.982-0.951-5.875C1176.412,931.953,1175.678,935.136,1176.911,936.026z M1167.912,947.038
			c0.018-0.306-0.099-0.727,0.204-0.794c0.075,1.36,0.181,0.869,0.529,0.222c0.02,1.472,0.888,3.426,0.586,4.348
			c-0.605-0.155-0.152-2.972-0.689-2.274c0.227,2.85,0.324,6.372,1.527,6.604c0.064,2.663-0.027,4.509,0.757,6.669
			c-0.818,2.427-0.401,7.985,0.653,8.739c0.013-0.843-0.764-4.878-0.221-6.447c1.143,4.83,0.694,10.013,1.387,15.145
			c0.594-0.425-0.452-3.536,0.615-2.112c0.114-1.203-0.339-0.712-0.592-0.989c0.972-5.93-1.702-14.062-1.133-22.146
			c0.219,0.766-0.17,2.236,0.443,2.553c0.429-1.092,0.259-1.346,1.155-1.895c-0.267-5.64-0.893-11.732-1.781-16.93
			c-0.364-2.138,0.237-5.169-1.526-6.609c0.512,8.192,2.443,16.68,2.517,23.336c-0.491-1.192-0.832-2.569-0.845-4.332
			c-1.921-0.184-0.89-2.562-1.074-4.052c-0.269-2.173-1.43-4.576-0.956-5.877c0.054,0.312,0.122,0.603,0.556,0.478
			c-1.503-1.574-1.203-6.747-2.274-9.657c-1.286-0.135-1.919,0.038-2.847-0.045c0.656,4.105,1.895,11.121,2.913,14.775
			c-0.599,0.196-0.125-2.229-0.608-1.243C1167.3,945.513,1167.475,946.427,1167.912,947.038z M1165.4,937.661
			c-0.414-0.677,0.034-1.981-0.96-2.518C1164.834,935.904,1164.549,937.44,1165.4,937.661z M1165.931,941.243
			c-0.057-0.966-0.241-1.771-0.688-2.277C1165.276,939.953,1165.394,940.837,1165.931,941.243z M1152.77,955.402
			c0.055-1.318,0.213-2.541,0.504-3.653c0.19,0.521-0.19,1.713,0.391,1.78c0.527-1.659,1.189-5.009-0.204-6.188
			c1.031-0.513,1.893-5.073,0.429-4.684c0.267,1.038-1.363,2.512-0.682,4.703C1151.949,947.82,1152.193,953.696,1152.77,955.402z
			 M1175.141,950.378c0.585-1.439-0.732-3.157,0.19-4.411c-0.985,0.488-0.175-1.104-0.849-0.972
			C1174.14,945.921,1174.659,948.774,1175.141,950.378z M1155.949,949.483c0.235-0.612,0.78-2.201,0.045-2.85
			C1156.33,947.735,1155.218,948.837,1155.949,949.483z M1171.209,949.635c0.373-0.466,0.145-1.813-0.649-1.765
			C1170.902,948.31,1170.719,949.366,1171.209,949.635z M1153.285,955.37c0.148,1.896-1.275,3.706-0.369,5.452
			C1153.34,959.485,1154.547,957.005,1153.285,955.37z M1153.66,974.213c-0.204-0.608,0.179-1.89-0.409-2.038
			C1152.794,972.732,1153.199,973.871,1153.66,974.213z M1157.01,987.92c0.109,0.367,0.895,0.866,1.139,1.462
			c0.536,1.301,0.403,5.858,1.302,3.521c0.177,0.445-0.202,1.535,0.371,1.523c-0.64-3.864-1.77-9.173-3.61-13.685
			C1156.755,982.189,1156.142,985.058,1157.01,987.92z"/>
		<path fill="#FFFFFF" d="M1228.931,874.497c0.238,0.143,0.483,0.275,0.514-0.038c0.23,0.613-0.811,2.181-1.058,3.182
			C1227.92,876.986,1229.054,875.654,1228.931,874.497z"/>
		<path fill="#FFFFFF" d="M1272.058,870.505c-0.378,0.875-1.266,1.313-1.645,2.19C1270.06,872.14,1271.179,870.8,1272.058,870.505z"
			/>
		<path fill="#FFFFFF" d="M1341.59,790.865c-0.143,2.501-3.579,2.815-4.499,5.507c-0.673,0.129-0.703-0.489-0.849-0.97
			c1.342,0.496,0.915-1.919,2.714-1.757c-0.271-0.872,0.203-1.105,0.399-1.577C1340.828,792.606,1340.8,791.498,1341.59,790.865z"/>
		<path fill="#FFFFFF" d="M1339.462,796.971c1.147,0.187,0.778-0.932,1.741-0.905c-0.335,0.594-0.592,1.254-1.722,1.162
			c0.011,0.173,0.023,0.344,0.036,0.515C1339.247,798.562,1339.137,797.037,1339.462,796.971z"/>
		<path fill="#FFFFFF" d="M1175.649,971.015c-0.617-0.174-1.04,0.983-1.268,0.354c-0.12-0.979,0.204-0.106,0.751-0.312
			c0.407-3.848-0.584-5.49-0.616-8.228c0.351-0.071,0.616,1.271,0.814,0.457c0.297,3.23,0.383,7.928,1.041,10.521
			C1175.587,973.514,1175.788,972.061,1175.649,971.015z"/>
		<path fill="#FFFFFF" d="M1180.834,967.785c0.41-0.102,0.462,0.214,0.794,0.198c-0.416-0.389-0.527-1.866-0.176-2.313
			c1.155,2.252,0.052,4.882-0.234,7.257c-0.025,0.557,0.408,2.729-0.099,2.073C1180.423,971.644,1180.988,969.069,1180.834,967.785z
			"/>
		<path fill="#FFFFFF" d="M1180.896,975.534c0.603,1.007,0.152,3.171-0.481,3.914
			C1180.518,978.094,1181.089,977.145,1180.896,975.534z"/>
	</g>
	<g>
		<path fill="#FFFFFF" d="M953.772,748.637c0.443,0.715-0.181,2.561-0.515,3.354C952.788,755.198,953.159,748.528,953.772,748.637z"
			/>
		<path fill="#FFFFFF" d="M954.805,767.459c0.638,0.403,0.104,1.801,0,2.319C954.016,769.219,955.051,768.325,954.805,767.459z"/>
		<path fill="#FFFFFF" d="M956.868,796.844c0.47,0.122,0.436,3.983-0.26,4.638C956.276,800.014,956.882,798.852,956.868,796.844z"/>
		<path fill="#FFFFFF" d="M956.608,801.739c0.173,1.556,0.423,3.433,0,5.157C956.347,805.651,955.54,803.375,956.608,801.739z"/>
		<path fill="#FFFFFF" d="M955.062,809.474c0.514,1.548,0.514,3.604,1.032,5.157C954.491,813.437,954.952,811.551,955.062,809.474z"
			/>
		<path fill="#FFFFFF" d="M953.257,701.21c3.752,1.134,5.659,5.266,4.64,9.026c1.042-0.561,0.508,2.362,1.546,1.802
			c-0.277,1.495,0.637,2.708-0.255,3.35c0.486-0.353,1.14,0.295,1.029-1.029c-0.015,7.263-1.299,13.724-3.092,19.847
			c-0.319-0.09,0.212-1.484,0-2.321c-1.311,4.586-2.825,9.705-2.835,14.179c-2.949,4.336-2.182,9.355-3.092,14.951
			c0.538-1.094,1.028-2.239,1.289-3.609c0.341,3.518-1.929,8.074-1.033,10.826c0.355-0.232,0.279-2.235,1.29-2.574
			c-0.655,1.188-0.067,2.387,0.772,2.833c-2.343,9.923,0.298,24.624-0.772,32.992c0.736-0.034,0.468-1.074,0.513-1.803
			c0.703,5.342-0.127,8.824,1.289,14.693c1.655-0.06,1.665,3.979,3.351,4.382c1.009-0.247-1.26-1.016,0.258-1.032
			c0.267-0.454,1.941,1.96,2.32,3.091c-0.803-1.752-1.863-0.086-3.353-1.03c1.025,0.526,1.386,3.901,0.261,4.383
			c0.071,1.322,0.062-1.021-0.776-1.291c-0.535,0.388,0.365,1.077,0.26,1.291c-1.174,0.554-0.525,0.416-1.548,1.288
			c0.684,0.174,0.291,1.431,1.288,1.29c-1.582,0.307-2.69-0.702-4.38,0.256c1.464,2.333-1.293,2.662-3.093,3.354
			c-0.703,0.236,0.359,0.804,0,1.545c-1.754-0.131-2.989,0.01-4.64-1.033c-7.054-17.082-8.904-44.023-6.703-64.7
			c-0.853-1.091-0.607-3.328,0.258-4.124c-0.582-9.123,1.836-19.628,2.321-29.642c-6.117,11.841-9.309,26.605-13.921,39.954
			c0.113,0.384,0.332-0.103,0.774,0c-0.255,0.605-0.454,1.268-0.515,2.062c-0.56,0.041-0.118-0.914-0.26-1.291
			c-3.188,5.443-2.046,12.303-4.123,19.074c0.047,0.992-0.211,0.096-0.773,0.261c0.43,4.035-1.145,9.021-2.062,13.146
			c-0.318-0.113-0.53-0.331-0.517-0.774c-1.621,1.546-1.502,4.589-2.32,6.444c-4.422-0.665-5.071,4.51-8.764,4.896
			c-0.665,0.711-1.126,1.625-1.29,2.839c-1.133-0.518-2.287-0.721-4.124-1.034c-2.367-6.094-0.267-13.425-0.773-21.654
			c-0.724-0.11-1.553,1.879-2.064,2.839c-1.954-0.487-2.436,4.389-3.866,6.443c-0.417,0.604-1.337,0.948-1.803,1.546
			c-1.239,1.581-2.081,3.825-3.352,5.673c-2.864,4.168-6.314,8.674-9.795,12.63c-4.309,4.891-9.673,11.363-16.755,13.403
			c-14.167,4.079-25.306-6.326-25.521-23.714c-2.25,4.269-6.811,10.581-4.38,16.239c-1.76,8.123-7.634,12.129-11.859,17.786
			c-12.374,1.447-13.87-9.943-16.497-19.077c-1.971,2.727-1.822,6.17-3.093,9.025c-2.15,4.817-5.621,8.813-7.734,13.404
			c-1.963,1.816-3.591,3.965-4.896,6.442c-0.917,0.373-1.534,1.044-2.063,1.805c-14.577,7.157-17.369-14.75-17.012-26.294
			c0.19-6.158,2.028-12.854,2.32-17.528c0.034-0.536-0.346-1.319-0.257-1.803c0.455-2.513,2.604-6.727,1.802-8.765
			c1.356-1.444,1.098-3.409,1.548-5.155c3.052-11.851,8.729-21.046,14.693-30.419c2.948-2.357,6.954-4.354,10.569-2.836
			c0.774,0,1.547,0,2.321,0c1.619,1.304,3.961,1.884,5.154,3.61c16.958,3.096,7.856,26.665,13.919,38.924
			c3.695-11.173,8.671-21.642,13.919-31.447c4.974-9.288,11.966-19.062,20.881-24.487c0.979-0.6,1.955-0.686,2.835-1.291
			c3.413-2.346,6.441-4.936,10.309-6.956c3.287,1.596,7.795,3.1,11.085,3.865c-0.166,1.42,0.458,2.188-0.258,3.607
			c0.038,0.564,0.649,0.553,1.288,0.515c-0.252,0.418-0.689,0.595-1.031,0.26c-1.2,1.03-0.697,3.771-2.834,3.864
			c-0.338,0.343-0.16,0.781,0.256,1.03c-2.101,1.938-3.911,4.168-5.927,6.188c0.188,0.24,0.468,0.389,0.771,0.517
			c-5.416,0.678-13.3,3.608-17.012,7.992c-2.388,2.815-5.458,12.265-5.719,16.088c-0.129,1.872-0.875,4.434-0.817,6.443
			c0.294,9.881,1.926,20.686,8.297,22.878c9.08-0.364,13.624-7.429,17.83-13.445c7.46-10.674,11.979-23.479,16.239-37.379
			c3.379-11.021,4.659-21.892,6.704-32.995c1.224-6.655,2.972-13.229,3.867-19.59c0.193-1.366-0.136-2.519,0-3.608
			c0.152-1.223,0.841-2.383,1.032-3.609c0.708-4.569,0.619-9.249,1.802-13.919c0.404-1.582,1.407-3.21,1.806-4.896
			c0.254-1.071,0.033-2.104,0.258-3.094c0.278-1.222,1.109-2.178,1.29-3.353c0.54-3.534,0.321-7.006,0.774-10.828
			c0.495-4.178,1.36-9.81,1.804-14.435c0.271-2.843-0.042-5.376,0.258-7.217c0.835-5.129,1.595-10.153,2.32-15.724
			c0.707-5.443,3.764-11.396,10.567-10.054c2.919,0.575,4.312,4.606,4.641,8.248c0.868,9.648-3.623,15.954-2.835,25.52
			c-0.861,7.246-4.047,17.188-3.093,25.776c0.325,2.938-0.127,5.894-0.259,8.764c-0.505,11.062-3.172,23.938-3.864,32.996
			c-0.107,1.371,0.36,2.74,0.256,4.123c-0.45,5.95-2.241,12.462-2.578,18.562c4.785-10.888,9.809-23.223,16.239-32.74
			c1.196-1.762,2.668-3.338,4.125-5.154c1.492-1.856,4.936-3.892,7.475-5.926c-0.253-0.833-2.111-0.034-1.545-0.518
			c0.775-0.57,0.898-0.303,2.062-0.257c1.351-1.568,3.642-2.201,6.446-2.32C953.41,702.166,953.553,701.965,953.257,701.21z
			 M948.102,704.304c0.3,0.217,0.691,0.339,1.289,0.257c-0.041-0.304,0.043-0.733-0.257-0.773
			C949.318,704.487,947.917,703.604,948.102,704.304z M957.383,707.654c-0.318-0.801,0.988-1.959-0.26-2.063
			C957.282,706.207,956.8,707.46,957.383,707.654z M938.822,733.688c0.48-1.551,2.766-4.05,1.289-5.154
			C939.641,730.578,938.36,731.918,938.822,733.688z M937.019,738.072c-0.006-0.879,1.261-1.814,0.515-2.579
			C937.632,736.464,936.309,737.345,937.019,738.072z M949.391,773.128c0.229-0.891,0.738-2.74,0-3.093
			C949.185,770.699,948.813,772.53,949.391,773.128z M786.479,812.828c0.155,5.429-0.97,11.248,2.063,17.01
			c4.242-8.973,6.03-20.722,6.958-32.735C790.271,801.397,788.834,807.728,786.479,812.828z"/>
		<path fill="#FFFFFF" d="M960.218,723.119c0.917-2.844-1.022,5.327-0.514,2.837C959.664,724.8,959.73,723.748,960.218,723.119z"/>
		<path fill="#FFFFFF" d="M952.744,754.309c0.623,1.038-0.086,1.504,0,2.581C951.952,756.249,953.051,755.323,952.744,754.309z"/>
		<path fill="#FFFFFF" d="M955.062,781.376c0.037,0.563,0.131,3.39-0.257,4.381C954.236,784.666,954.517,782.21,955.062,781.376z"/>
		<path fill="#FFFFFF" d="M957.383,806.896c0.447,1.353,0.591,2.058,0.257,3.35c0.024,0.668,1.103,0.273,0.774,1.289
			c1.9-0.636,0.888,3.474,2.578,3.866c-0.94,0.229,0.18,1.099-0.773,1.033c0.739,1.212,1.317,1.072,2.32,1.805
			c-0.201,0.229-0.276,0.579-0.257,1.032c-0.729,0.211-0.669-0.365-1.29-0.258c1.039-0.499,0.148-1.295-0.515-1.549
			c-1.004,0.231,0.854,0.951,0,1.03c-1.834-0.977-1.056-3.359-3.091-4.382c-0.23-1.888,0.77-3.632-0.774-4.38
			c-0.028-1.279,0.253-1.268,0-2.32C957.051,807.423,957.278,807.219,957.383,806.896z"/>
	</g>
	<g>
		<path fill="#FFFFFF" d="M971.831,984.847c-0.458,0.23-0.652,0.721-1.544,0.52c-0.023,0.36-0.043,0.724,0.256,0.77
			c-0.347,0.768-2.195,0.039-2.062,1.289c-0.808-0.393-0.427-1.979-0.513-3.092C968.869,983.23,971.671,982.725,971.831,984.847z"/>
		<g>
			<path fill="#FFFFFF" d="M965.458,889.811c0.014,0.787-0.543,1.005-0.772,1.545C963.996,890.901,964.683,889.658,965.458,889.811z
				"/>
			<path fill="#FFFFFF" d="M959.53,943.171c0.194,2.001-0.158,5.682-1.547,6.96C958.988,948.3,959.055,945.53,959.53,943.171z"/>
			<path fill="#FFFFFF" d="M955.407,968.175c0.555-0.045,0.116,0.913,0.256,1.289c1.025-0.282,0.362-0.652,1.031-1.289
				c0.485,0.166,0.03,2.344-0.515,1.546c-0.048,1.811-0.228,4.472-0.257,6.188c0,0.256,0,0.517,0,0.771
				C955.116,973.666,955.112,970.579,955.407,968.175z"/>
			<path fill="#FFFFFF" d="M942.775,883.111c0.293,0.047,0.142,0.257,0,0.257c5.845-1.501,13.385-4.533,19.333-0.257
				c-0.276,1.448,0.827,2.88,1.547,1.808c0.632,0.788-0.242,1.874-0.515,3.091c0.653-0.422,1.156,0.793,2.06,0
				c0.026,1.998-1.669,2.279-1.545,4.383c0.414,0.866,0.817-0.812,1.288,0c-0.105,0.785-0.929,0.181,0,1.029
				c0.402-0.631,0.384-1.678,0.515-2.577c0.56-0.043,0.12,0.915,0.259,1.288c0.701-0.412,1.621-0.613,1.549-1.804
				c0.807,0.994-0.621,1.948-1.034,2.577c0.175,0.564,0.858-0.487,1.034-0.773c0.69,0.627-0.966,1.084-0.517,2.318
				c0.195-0.406,0.818-0.385,0.774-1.029c0.572,5.849-1.46,11.47-3.092,17.269c1.411-0.833,0.008-1.353,1.546-2.06
				c-0.59,2.157-0.782,4.718-1.806,6.445c0.386,0.838,0.462-1.166,1.031-0.259c-1.591,1.529-2.309,4.431-3.092,6.443
				c0.464,0.222,0.807,0.565,1.031,1.031c0.564-1.413,1.208-2.745,1.547-4.384c0.583,3.332-1.608,7.863-2.578,11.86
				c-0.59,2.43-0.59,4.692-1.547,6.185c-0.431-0.663,0.064-1.227-0.257-2.321c-0.629,1.264-0.831,2.952-1.547,4.125
				c-0.242-1.79,0.722-4.601,1.031-6.702c-2.337,4.966-3.555,11.052-4.897,17.018c-0.851-3.594,1.271-5.689,0.772-9.285
				c-1.246,4.742-2.936,13.132-2.836,18.306c0.741-0.324,0.953-2.006,1.289-3.352c0.259-1.038,0.479-3.392,0.518-2.319
				c-0.597,4.734-0.365,10.289-1.807,14.177c-0.046,2.453,0.072,4.74,0.516,6.702c0.325-1.835-0.008-3.835,0.258-6.188
				c0.831,7.738,1.528,12.973,3.352,18.818c-0.062,1.235-0.719-0.396-1.031-0.516c-0.712,1.144,1.033,2.857,0.257,4.122
				c-0.572-2.37-1.041-4.154-1.288-5.93c-0.654-0.112-1.34-0.389-1.548-1.541c-0.458,0.643-0.328,0.274-1.289,0.254
				c0.179-1.383-0.761-1.641-1.032-2.575c-0.338-0.128-0.113,1.278,0.517,1.029c-0.226,0.75-0.386,0.289-1.033,0.256
				c1.547,3.331,1.127,7.242,3.866,9.54c-0.583-2.436-1.498-4.085-1.03-6.701c1.314,4.425,0.629,5.783,3.35,9.021
				c0.787-0.101,1.313,0.68,1.546-0.255c0.455,0.058,0.589,0.442,0.515,1.028c0.29-1.421,2.488,0.124,3.353-0.256
				c0.336-1.113-1.228-0.322-1.031-1.291c1.027-0.254,0.776,0.771,1.804,0.519c0.05-1.681-1.338-1.929-2.06-2.838
				c-0.028-1.867-1.209-4.334-1.29-6.962c1.481,2.462,2.245,6.3,4.125,7.735c1.132-0.674,2.385-1.223,2.835-2.577
				c0.894,0.39,1.473,1.103,2.321,1.544c0.087,1.086-0.939-0.17-1.545,0c-0.125,0.813,0.791,0.587,0.513,1.549
				c-1.402,0.234-1.947,2.684-1.547,3.864c-1.796-0.227-1.28,1.606-3.093,2.062c0.278,3.067-3.658,5.58-3.607,9.022
				c-1.388,0.613-2.354,1.812-3.867,1.032c0.23,0.993,2.208,0.748,2.32,0.517c0.044,1.276-4.208,0.352-3.608-1.032
				c-0.25,0.009-0.201,0.314-0.259,0.516c-6.586-4.84-9.961-12.893-13.146-21.136c1.269,0.623,1.666,4.346,2.579,6.184
				c-1.121-6.593-3.852-14.844-3.865-21.905c-1.249,1.221,0.125,4.122,0,5.927c-0.801-3.445-1.37-7.826-1.032-9.797
				c0.11-0.643,0.1-0.329,0.516-0.261c-1.275-19.107,5.164-44.726,8.761-63.927c-2.459-0.454-5.327,0.835-7.474,1.55
				c-0.549,7.725-5.429,13.784-6.96,20.619c-0.912,0.61-0.942,0.568-1.803,1.035c1.426,0.29-1.293,2.312-2.063,3.351
				c-0.822,1.108-1.357,2.85-2.576,4.381c-1.782,2.233-4.788,4.214-5.672,6.186c-0.888,1.98-0.412,4.153-0.773,5.927
				c-0.818,3.995-2.795,7.415-3.352,12.114c0.438,0.095,0.486-0.198,0.515-0.51c-1.047,4.934-4.979,12.867-5.412,16.751
				c-0.869,0.478-0.031-0.066-0.518-0.515c-1.356,2.012-0.323,2.111-2.319,3.867c-0.041-0.301,0.057-0.46,0.258-0.516
				c-1.773,0.893-3.116,4.446-4.383,6.702c-0.248-0.008-0.199-0.316-0.257-0.514c-4.787,5.119-9.076,14.696-17.271,15.983
				c-2.379,0.371-5.079,0.129-6.958-0.518c-10.106-3.476-14.684-21.288-13.662-35.315c0.211-2.927,0.91-5.874,1.288-8.503
				c-4.537,3.965-8.774,8.241-13.661,11.858c0.445,1.613,1.778,2.344,2.32,3.859c0.438,0.1,0.485-0.197,0.516-0.511
				c0.329,1.134,0.868,2.055,1.03,3.353c0.563,0.047,0.821-0.213,0.775-0.775c0.925,3.854,0.768,7.271,1.289,11.604
				c0.079,0.545,0.896-0.275,0.773-0.777c0.277,26.171,2.85,52.686-2.32,78.358c-2.607,7.571-4.76,15.046-8.506,21.913
				c-0.326,4.497-4.231,7.195-8.505,6.96c-3.027-0.165-4.433-2.709-6.445-3.864c-11.376-23.188-12.356-58.27-14.693-89.965
				c-0.471-6.381-0.761-13.326-1.03-20.362c-5.662-2.757-7.799-11.435-6.188-18.818c0.266-1.214,1.236-2.182,1.804-3.351
				c0.635-1.303,0.535-3.327,2.062-3.349c0.105-0.623-0.471-0.562-0.257-1.29c0.728,0.213,0.669-0.361,1.289-0.256
				c-0.396-17.935-3.597-47.176,1.031-61.609c1.031-0.86,1.439-2.342,2.578-3.093c7.516,1.026,12.765,4.244,13.147,12.891
				c0.197,4.486,1.179,9.969,1.288,15.724c0.184,9.562-1.189,26.059,0.515,36.088c1.567,1.138,2.04,2.622,4.642,1.804
				c3.672-1.157,7.656-3.665,11.083-5.672c8.418-4.92,15.433-12.596,22.428-19.59c1.527-1.528,3.446-2.608,4.381-3.866
				c2.078-2.795,2.62-7.183,5.93-7.475c-0.201-0.234-0.278-0.582-0.258-1.03c0.877,0.608,0.728,0.272,1.287-0.519
				c0.636,0.832,1.337,0.426,1.807,1.032c0.495-0.104,0.201-0.999,1.03-0.772c-0.137,0.204-0.27,0.416-0.259,0.772
				c1.086-1.256,4.222-3.936,5.157-2.835c1.027-0.429,2.484-0.99,3.609-1.806c0.109-0.073,0.227-0.755,0.258-0.771
				c0.613-0.271,3.454-0.732,5.155-1.033c0.879-0.157,1.902-0.058,2.32,0c0.56,0.074,0.212,0.588,0.774,0.775
				c0.15,0.048,0.621-0.414,1.03-0.259c0.512,0.187,0.239,0.445,0.775,0.775c1.458,0.887,5.11,0.68,4.897,2.058
				c4.233-1.41,5.975,3.991,5.414,7.735c0.578-0.627,0.992-1.414,1.547-2.063c0.255,0.535-0.368,1.202,0,2.319
				c3.621-2.234,3.546-7.198,4.38-12.633c1.184-7.67,4.423-14.401,9.282-18.041c-0.619,1.272-3.433,2.579-4.126,4.642
				C933.014,888.57,939.378,885.66,942.775,883.111z M963.913,908.116c0.124-0.666,1.04-1.862,0.517-2.323
				C964.356,906.511,963.458,907.724,963.913,908.116z M960.561,928.478c-0.057-1.263,0.786-1.619,0.774-2.834
				C960.183,926.104,960.301,927.678,960.561,928.478z M953.085,940.852c0.011,1.112,0.83-0.698,1.289-0.771
				c-0.012-2.766,1.619-5.258,1.289-7.479C954.805,935.353,953.955,938.106,953.085,940.852z M893.026,947.552
				c0.155,0.016,0.306,0.037,0.256,0.258c-2.864-0.998-4.332-3.396-6.701-4.896c-1.087,3.181-1.947,7.769-2.319,10.825
				c0.847,0.044,0.193-1.959,1.288-2.32c0.175,1.898-0.955,3.851-0.258,5.414c0.444-0.159-0.019-1.224,0.516-1.291
				c-0.308,0.502,0.168,5.333-0.516,4.123c-0.153,1.146-0.158,1.914,0.773,2.062c-0.219,0.984-0.434,1.973-0.515,3.096
				c1.392,0.048,1.167,1.592,0.515,2.575c0.927-0.181,0.311,2.001,0,2.834c0.371,0.573,0.63-0.319,0.772,0.264
				c-1.14,1.63,1.535,3.515,2.837,4.378c-0.822,0.223-0.797-0.404-1.289-0.514c1.064,2.245,4.221-0.756,4.897-1.548
				c4.425-5.16,8.488-15.413,10.054-23.457C899.762,949.906,895.443,948.112,893.026,947.552z M950.251,968.946
				c-0.071,0.604-0.05,2.844,0.514,5.159c-0.346-8.274,1.06-17.331,1.548-26.297C950.749,955.546,949.946,962.735,950.251,968.946z
				 M847.915,1001.946c0.239-5.212,0.968-11.112,0.257-15.728c-0.895-5.82-3.99-10.204-7.218-14.176c-0.172,0-0.344,0-0.515,0
				c-0.643,0.387-1.265,0.8-2.064,1.029c0.259,16.991-3.412,34.728,1.548,49.494c0.255,0.688,1.026,0.866,1.289,1.547
				c2.246,8.187,2.155,19.552,4.382,26.294C845.96,1034.79,847.214,1017.264,847.915,1001.946z M954.634,981.321
				c-0.204-1.341-0.191-2.902-1.033-3.608C953.775,978.93,953.664,980.358,954.634,981.321z"/>
			<path fill="#FFFFFF" d="M955.149,958.382c-0.486,0.02,0.205-5.722,0.515-4.9C955.894,955.517,955.141,956.568,955.149,958.382z"
				/>
			<path fill="#FFFFFF" d="M958.757,969.981c0.604,2.245-0.529,5.133-0.258,8.246C957.276,974.892,958.148,973.396,958.757,969.981z
				"/>
			<path fill="#FFFFFF" d="M957.21,981.321c-0.169-0.409,1.144,1.874,1.29,2.834C957.731,983.553,957.205,982.701,957.21,981.321z"
				/>
			<path fill="#FFFFFF" d="M958.242,956.061c0.025,3.818-1.395,8.391-1.547,11.6c-0.735,0.301-0.741-1.98-1.032-0.517
				c-1.052-0.822,0.671-1.024,0.773-1.545c-0.405-0.939-0.384,0.598-1.029,0.256c0.486-1.031,0.308-1.351,0.515-2.834
				C956.612,965.15,957.89,957.827,958.242,956.061z"/>
		</g>
	</g>
</g>
</svg>
