<?xml version="1.0" encoding="utf-8"?>
<!-- Generator: Adobe Illustrator 15.1.0, SVG Export Plug-In . SVG Version: 6.00 Build 0)  -->
<!DOCTYPE svg PUBLIC "-//W3C//DTD SVG 1.1//EN" "http://www.w3.org/Graphics/SVG/1.1/DTD/svg11.dtd">
<svg version="1.1" id="Layer_1" xmlns="http://www.w3.org/2000/svg" xmlns:xlink="http://www.w3.org/1999/xlink" x="0px" y="0px"
	 width="162.479px" height="165.422px" viewBox="0 0 162.479 165.422" enable-background="new 0 0 162.479 165.422"
	 xml:space="preserve">
<path fill="#FFFFFF" d="M97.389,84.463l7.446,7.445l-39.776,39.775c5.299,1.729,10.957,2.656,16.834,2.574
	c0.793-0.012,1.577-0.047,2.357-0.088l31.427-31.42l7.394,7.392l-0.082-25.687L97.389,84.463 M89.631,48.22l7.444,7.452
	l-57.62,57.612c1.508,2.02,3.15,3.924,4.925,5.691c1.85,1.857,3.838,3.559,5.945,5.115l57.587-57.586l7.398,7.401l-0.091-25.694
	L89.631,48.22 M53.21,40.283l7.447,7.448l-31.43,31.434c-0.074,1.231-0.121,2.473-0.102,3.721
	c0.075,5.406,0.975,10.599,2.574,15.482L71.492,58.57l7.398,7.401L78.805,40.28L53.21,40.283"/>
</svg>
